<svg version="1.1" id="Layer_1" xmlns="http://www.w3.org/2000/svg" xmlns:xlink="http://www.w3.org/1999/xlink" x="0px" y="0px"
	 width="100%" viewBox="0 0 309 86" enable-background="new 0 0 309 86" xml:space="preserve">
<path fill="none" opacity="1.000000" stroke="#000000" stroke-linecap="round" stroke-linejoin="round" stroke-width="2.000000"
	d="
M116.000000,51.000000 
	C111.703857,49.866428 107.325401,50.872929 102.500000,50.366974 
	C102.500000,44.008549 102.324509,37.497643 102.569954,31.002644 
	C102.703743,27.462152 101.531593,26.019169 97.998062,26.485283 
	C95.348000,26.834854 92.610626,25.936634 90.000000,27.000000 
"/>
<path fill="none" opacity="1.000000" stroke="#000000" stroke-linecap="round" stroke-linejoin="round" stroke-width="2.000000"
	d="
M52.500000,35.500000 
	C52.724255,39.875103 52.279697,43.926388 48.541637,47.049831 
	C46.413795,48.827820 44.225689,49.566349 41.499603,49.537884 
	C34.580872,49.465652 34.588402,49.546612 34.483135,56.499744 
	C34.470402,57.340973 34.862083,58.305752 33.811989,59.224800 
	C32.860157,59.447582 31.693340,59.865158 30.497871,59.977303 
	C22.050629,60.769688 22.030643,60.749733 22.005219,51.999985 
	C21.980993,43.663383 22.000000,35.326656 22.000000,26.500000 
	C29.492064,26.500000 36.496033,26.500000 43.500000,26.500000 
"/>
<path fill="none" opacity="1.000000" stroke="#000000" stroke-linecap="round" stroke-linejoin="round" stroke-width="2.000000"
	d="
M287.500000,55.500000 
	C289.341064,51.453953 290.173584,47.529247 288.673798,42.943161 
	C287.667480,39.865967 288.696716,36.309753 289.424011,32.983387 
	C289.842773,31.068073 289.500000,28.986250 289.500000,26.500000 
	C287.344055,26.500000 285.672028,26.499998 284.000000,26.499998 
	C276.330048,26.500004 276.103943,26.501570 276.155792,33.998920 
	C276.169098,35.921062 276.417847,37.198357 274.500000,38.000000 
"/>
<path fill="none" opacity="1.000000" stroke="#000000" stroke-linecap="round" stroke-linejoin="round" stroke-width="2.000000"
	d="
M269.500000,49.500000 
	C269.235718,42.000000 270.711761,34.500000 269.709564,26.750000 
	C265.833344,26.750000 262.166656,26.750000 258.528442,26.750000 
	C256.491364,33.872192 257.280273,41.016186 256.677399,48.015282 
	C256.148895,54.151318 263.022308,60.144436 269.487793,61.083965 
	C273.603577,61.682049 277.534027,61.483635 281.500000,60.500000 
"/>
<path fill="none" opacity="1.000000" stroke="#000000" stroke-linecap="round" stroke-linejoin="round" stroke-width="2.000000"
	d="
M243.500000,26.500000 
	C237.836975,26.603399 232.190475,25.916969 226.931839,29.396994 
	C222.533569,32.307640 220.084610,35.455135 220.901611,41.014462 
	C221.462524,44.831364 220.972778,48.700371 222.410767,52.533474 
	C225.032425,59.521725 229.463776,61.649231 236.500122,61.506218 
	C238.499298,61.465584 240.500000,61.500000 242.500000,61.500000 
"/>
<path fill="none" opacity="1.000000" stroke="#000000" stroke-linecap="round" stroke-linejoin="round" stroke-width="2.000000"
	d="
M87.500000,59.000000 
	C82.721069,61.643303 76.991577,61.029427 73.500008,57.499996 
	C70.925087,54.897156 65.472122,55.047760 63.589024,58.055733 
	C62.837677,59.255894 62.120781,59.305058 61.011307,59.551010 
	C57.480774,60.333664 54.000000,59.817047 50.826046,60.027283 
	C49.589577,58.179462 50.402485,57.252724 50.901546,55.961933 
	C54.094639,47.703259 57.215210,39.401684 59.894329,30.966438 
	C60.969486,27.581285 62.704849,26.360462 66.000839,26.476040 
	C69.163612,26.586945 72.333336,26.500000 75.500000,26.500000 
"/>
<path fill="none" opacity="1.000000" stroke="#000000" stroke-linecap="round" stroke-linejoin="round" stroke-width="3.000000"
	d="
M141.500000,26.500000 
	C140.666672,26.500000 139.833328,26.500000 139.000000,26.499998 
	C126.394493,26.499983 126.005035,26.412096 123.156357,39.035286 
	C121.620682,45.840229 117.234962,51.503689 116.435669,58.492641 
	C116.247589,60.137272 114.798294,61.010918 112.999985,61.006958 
	C105.500023,60.990437 97.999641,61.028973 90.500801,60.935562 
	C89.994652,60.929256 89.500000,60.000000 89.000000,59.500000 
"/>
<path fill="none" opacity="1.000000" stroke="#000000" stroke-linecap="round" stroke-linejoin="round" stroke-width="2.000000"
	d="
M167.000000,39.000000 
	C163.634598,37.807205 165.164536,34.294128 164.869522,32.441170 
	C164.035980,27.205751 161.567886,25.901239 157.000687,26.505146 
	C154.789047,26.797581 152.208054,25.512659 150.434875,28.096954 
	C153.108612,37.401550 157.174561,46.362160 158.993057,56.001312 
	C159.625397,59.353207 160.926865,61.263187 165.004089,61.106560 
	C174.691772,60.734413 174.700394,60.958870 177.500000,51.500000 
"/>
<path fill="none" opacity="1.000000" stroke="#000000" stroke-linecap="round" stroke-linejoin="round" stroke-width="3.000000"
	d="
M201.500000,51.500000 
	C202.534103,57.770336 206.365433,61.112579 212.499588,60.980568 
	C214.502243,60.937473 216.500000,60.666664 218.500000,60.499996 
"/>
<path fill="none" opacity="1.000000" stroke="#000000" stroke-linecap="round" stroke-linejoin="round" stroke-width="2.000000"
	d="
M208.500000,26.500000 
	C202.833328,26.500000 197.165634,26.433193 191.500320,26.520760 
	C186.815460,26.593168 183.652420,29.442711 183.500000,33.500000 
"/>
<path fill="none" opacity="1.000000" stroke="#000000" stroke-linecap="round" stroke-linejoin="round" stroke-width="3.000000"
	d="
M201.000000,56.500000 
	C200.736755,59.559353 198.890320,61.335300 196.017639,60.886993 
	C193.093079,60.430592 188.716827,63.580105 187.500000,58.000000 
"/>
<path fill="none" opacity="1.000000" stroke="#000000" stroke-linecap="round" stroke-linejoin="round" stroke-width="2.000000"
	d="
M153.500000,57.500000 
	C153.704208,60.099346 152.181458,60.598515 149.999329,60.518070 
	C146.165710,60.376743 141.834335,61.746284 139.945068,56.519855 
	C139.478409,55.228836 137.990280,56.100037 136.997574,56.040176 
	C134.838760,55.910007 132.666672,56.000000 130.500000,56.000000 
"/>
<path fill="none" opacity="1.000000" stroke="#000000" stroke-linecap="round" stroke-linejoin="round" stroke-width="2.000000"
	d="
M185.000000,28.500000 
	C181.116440,25.697821 175.883560,25.697821 172.000000,28.500000 
"/>
<path fill="none" opacity="1.000000" stroke="#000000" stroke-linecap="round" stroke-linejoin="round" stroke-width="3.000000"
	d="
M117.000000,59.500000 
	C120.833336,60.484879 124.666664,60.019760 128.500000,59.500000 
"/>
<path fill="none" opacity="1.000000" stroke="#000000" stroke-linecap="round" stroke-linejoin="round" stroke-width="3.000000"
	d="
M171.500000,29.500000 
	C170.938812,34.965782 167.129898,39.721123 168.000000,45.500000 
"/>
<path fill="none" opacity="1.000000" stroke="#000000" stroke-linecap="round" stroke-linejoin="round" stroke-width="2.000000"
	d="
M83.500000,46.500000 
	C83.731293,49.863754 84.697868,52.941570 87.000000,55.500000 
"/>
<path fill="none" opacity="1.000000" stroke="#000000" stroke-linecap="round" stroke-linejoin="round" stroke-width="2.000000"
	d="
M88.500000,29.500000 
	C89.787598,39.166668 89.684013,48.833332 88.500000,58.500000 
"/>
<path fill="none" opacity="1.000000" stroke="#000000" stroke-linecap="round" stroke-linejoin="round" stroke-width="2.000000"
	d="
M275.500000,46.500000 
	C276.943420,50.388077 275.216095,51.739552 271.500000,51.500000 
"/>
<path fill="none" opacity="1.000000" stroke="#000000" stroke-linecap="round" stroke-linejoin="round" stroke-width="3.000000"
	d="
M69.000000,38.500000 
	C70.173042,40.536011 67.016426,44.237270 71.500000,45.000000 
"/>
<path fill="none" opacity="1.000000" stroke="#000000" stroke-linecap="round" stroke-linejoin="round" stroke-width="2.000000"
	d="
M187.000000,28.500000 
	C186.703812,37.000000 189.460526,45.514236 186.944794,53.983601 
	C186.594772,55.161964 189.512878,57.838852 185.500000,57.500000 
"/>
<path fill="none" opacity="1.000000" stroke="#000000" stroke-linecap="round" stroke-linejoin="round" stroke-width="2.000000"
	d="
M236.500000,51.500000 
	C237.662781,51.655022 239.324463,51.301117 239.384796,50.491417 
	C239.694214,46.339046 241.354858,42.235916 240.008606,37.997265 
	C239.175125,35.373024 237.034302,36.897106 235.500000,36.500000 
"/>
<path fill="none" opacity="1.000000" stroke="#000000" stroke-linecap="round" stroke-linejoin="round" stroke-width="2.000000"
	d="
M219.000000,39.500000 
	C218.492661,43.015293 216.003510,45.364807 214.000000,48.000000 
"/>
<path fill="none" opacity="1.000000" stroke="#000000" stroke-linecap="round" stroke-linejoin="round" stroke-width="2.000000"
	d="
M276.500000,41.000000 
	C274.892975,42.339958 277.560150,44.154831 276.000000,45.500000 
"/>
<path fill="none" opacity="1.000000" stroke="#000000" stroke-linecap="round" stroke-linejoin="round" stroke-width="2.000000"
	d="
M276.000000,38.500000 
	C277.418518,40.605553 275.931213,40.531731 274.500000,40.500000 
"/>
</svg>