<svg version="1.1" id="Layer_1" xmlns="http://www.w3.org/2000/svg" xmlns:xlink="http://www.w3.org/1999/xlink" x="0px" y="0px"
	 width="100%" viewBox="0 0 314 54" enable-background="new 0 0 314 54" xml:space="preserve">
<path fill="#FFFFFF" opacity="1.000000" stroke="none" 
	d="
M217.000000,55.000000 
	C144.666687,55.000000 72.833382,55.000000 1.000058,55.000000 
	C1.000039,37.000031 1.000039,19.000065 1.000019,1.000072 
	C105.666595,1.000048 210.333191,1.000048 314.999817,1.000024 
	C314.999878,18.999924 314.999878,36.999847 314.999939,54.999886 
	C282.500000,55.000000 250.000000,55.000000 217.000000,55.000000 
M157.000000,49.348320 
	C157.000000,33.932743 157.000000,18.517168 157.000000,3.343589 
	C139.910645,3.343589 123.504478,3.343589 107.346237,3.343589 
	C107.346237,20.094694 107.346237,36.500938 107.346237,52.999897 
	C123.018105,52.999897 138.343979,52.984661 153.669754,53.018929 
	C155.614822,53.023277 157.489044,53.199535 157.000000,49.348320 
M3.003891,51.286026 
	C3.601777,51.856167 4.196847,52.920856 4.797961,52.924274 
	C20.745663,53.015083 36.693989,52.996441 52.780994,52.996441 
	C52.780994,36.163216 52.780994,19.759027 52.780994,3.221994 
	C36.157146,3.221994 19.752939,3.221994 3.000276,3.221994 
	C3.000276,19.067585 3.000276,34.693401 3.003891,51.286026 
M105.000000,11.541773 
	C105.000000,8.769013 105.000000,5.996254 105.000000,3.274272 
	C88.048088,3.274272 71.644852,3.274272 55.274971,3.274272 
	C55.274971,19.953318 55.274971,36.356575 55.274971,52.724335 
	C71.954704,52.724335 88.357994,52.724335 105.000000,52.724335 
	C105.000000,39.144585 105.000000,25.839113 105.000000,11.541773 
M263.000000,40.489891 
	C263.000000,44.592674 263.000000,48.695457 263.000000,52.715500 
	C279.973267,52.715500 296.376373,52.715500 312.715332,52.715500 
	C312.715332,36.026394 312.715332,19.623268 312.715332,3.284849 
	C296.025970,3.284849 279.622894,3.284849 263.000000,3.284849 
	C263.000000,15.543078 263.000000,27.517588 263.000000,40.489891 
M211.000000,36.498379 
	C211.000000,41.929535 211.000000,47.360691 211.000000,52.713058 
	C227.978424,52.713058 244.381485,52.713058 260.713043,52.713058 
	C260.713043,36.021576 260.713043,19.618507 260.713043,3.286968 
	C244.021545,3.286968 227.618484,3.286968 211.000000,3.286968 
	C211.000000,14.214604 211.000000,24.856682 211.000000,36.498379 
M209.000000,11.541773 
	C209.000000,8.769017 209.000000,5.996263 209.000000,3.274273 
	C192.048111,3.274273 175.644852,3.274273 159.274963,3.274273 
	C159.274963,19.953318 159.274963,36.356571 159.274963,52.724331 
	C175.954712,52.724331 192.358002,52.724331 209.000000,52.724331 
	C209.000000,39.144432 209.000000,25.839037 209.000000,11.541773 
z"/>
<path fill="#000000" opacity="1.000000" stroke="none" 
	d="
M156.999878,49.833817 
	C157.489044,53.199535 155.614822,53.023277 153.669754,53.018929 
	C138.343979,52.984661 123.018105,52.999897 107.346237,52.999897 
	C107.346237,36.500938 107.346237,20.094694 107.346237,3.343589 
	C123.504478,3.343589 139.910645,3.343589 157.000000,3.343589 
	C157.000000,18.517168 157.000000,33.932743 156.999878,49.833817 
M156.005508,37.495018 
	C156.005508,26.409897 156.005508,15.324775 156.005508,4.388827 
	C139.587326,4.388827 123.871948,4.388827 108.256577,4.388827 
	C108.256577,20.380922 108.256577,35.977478 108.256577,51.699028 
	C124.233894,51.699028 139.947510,51.699028 156.005508,51.699028 
	C156.005508,47.094845 156.005508,42.793232 156.005508,37.495018 
z"/>
<path fill="#000000" opacity="1.000000" stroke="none" 
	d="
M3.002083,50.802620 
	C3.000276,34.693401 3.000276,19.067585 3.000276,3.221994 
	C19.752939,3.221994 36.157146,3.221994 52.780994,3.221994 
	C52.780994,19.759027 52.780994,36.163216 52.780994,52.996441 
	C36.693989,52.996441 20.745663,53.015083 4.797961,52.924274 
	C4.196847,52.920856 3.601777,51.856167 3.002083,50.802620 
M52.003159,37.494995 
	C52.003159,26.410627 52.003159,15.326259 52.003159,4.390551 
	C35.587368,4.390551 19.873075,4.390551 4.258307,4.390551 
	C4.258307,20.380968 4.258307,35.976402 4.258307,51.697296 
	C20.233894,51.697296 35.946423,51.697296 52.003159,51.697296 
	C52.003159,47.094101 52.003159,42.792847 52.003159,37.494995 
z"/>
<path fill="#000000" opacity="1.000000" stroke="none" 
	d="
M105.000000,12.037706 
	C105.000000,25.839113 105.000000,39.144585 105.000000,52.724335 
	C88.357994,52.724335 71.954704,52.724335 55.274971,52.724335 
	C55.274971,36.356575 55.274971,19.953318 55.274971,3.274272 
	C71.644852,3.274272 88.048088,3.274272 105.000000,3.274272 
	C105.000000,5.996254 105.000000,8.769013 105.000000,12.037706 
M94.465393,3.994774 
	C81.714668,3.994774 68.963943,3.994774 56.302082,3.994774 
	C56.302082,20.334213 56.302082,36.059006 56.302082,51.697037 
	C72.336029,51.697037 88.060799,51.697037 103.696083,51.697037 
	C103.696083,35.662262 103.696083,19.937548 103.696083,3.994774 
	C100.745689,3.994774 98.100060,3.994774 94.465393,3.994774 
z"/>
<path fill="#000000" opacity="1.000000" stroke="none" 
	d="
M263.000000,39.990993 
	C263.000000,27.517588 263.000000,15.543078 263.000000,3.284849 
	C279.622894,3.284849 296.025970,3.284849 312.715332,3.284849 
	C312.715332,19.623268 312.715332,36.026394 312.715332,52.715500 
	C296.376373,52.715500 279.973267,52.715500 263.000000,52.715500 
	C263.000000,48.695457 263.000000,44.592674 263.000000,39.990993 
M263.997772,36.496635 
	C263.997772,41.589626 263.997772,46.682613 263.997772,51.701874 
	C280.322754,51.701874 296.045319,51.701874 311.701782,51.701874 
	C311.701782,35.677181 311.701782,19.954613 311.701782,4.298198 
	C295.677002,4.298198 279.954498,4.298198 263.997772,4.298198 
	C263.997772,14.897610 263.997772,25.197882 263.997772,36.496635 
z"/>
<path fill="#000000" opacity="1.000000" stroke="none" 
	d="
M211.000000,35.998569 
	C211.000000,24.856682 211.000000,14.214604 211.000000,3.286968 
	C227.618484,3.286968 244.021545,3.286968 260.713043,3.286968 
	C260.713043,19.618507 260.713043,36.021576 260.713043,52.713058 
	C244.381485,52.713058 227.978424,52.713058 211.000000,52.713058 
	C211.000000,47.360691 211.000000,41.929535 211.000000,35.998569 
M215.717331,3.999083 
	C212.962280,3.645334 211.922211,4.734673 211.947556,7.614676 
	C212.070511,21.589190 212.003662,35.565315 212.048248,49.540733 
	C212.050659,50.297596 212.453033,51.053185 212.619003,51.633720 
	C228.465332,51.633720 244.024231,51.633720 259.717957,51.633720 
	C259.717957,35.706238 259.717957,20.148329 259.717957,3.998032 
	C245.185043,3.998032 230.928299,3.998032 215.717331,3.999083 
z"/>
<path fill="#000000" opacity="1.000000" stroke="none" 
	d="
M209.000000,12.037706 
	C209.000000,25.839037 209.000000,39.144432 209.000000,52.724331 
	C192.358002,52.724331 175.954712,52.724331 159.274963,52.724331 
	C159.274963,36.356571 159.274963,19.953318 159.274963,3.274273 
	C175.644852,3.274273 192.048111,3.274273 209.000000,3.274273 
	C209.000000,5.996263 209.000000,8.769017 209.000000,12.037706 
M160.000458,6.724315 
	C160.000458,21.666584 160.000458,36.608852 160.000458,51.703583 
	C176.214554,51.703583 191.929214,51.703583 207.655273,51.703583 
	C207.655273,35.687019 207.655273,19.971758 207.655273,4.000099 
	C192.502579,4.000099 177.695221,3.967198 162.888916,4.076026 
	C161.928085,4.083088 160.975250,5.180060 160.000458,6.724315 
z"/>
<path fill="#F7001C" opacity="1.000000" stroke="none" 
	d="
M156.005508,37.993320 
	C156.005508,42.793232 156.005508,47.094845 156.005508,51.699028 
	C139.947510,51.699028 124.233894,51.699028 108.256577,51.699028 
	C108.256577,35.977478 108.256577,20.380922 108.256577,4.388827 
	C123.871948,4.388827 139.587326,4.388827 156.005508,4.388827 
	C156.005508,15.324775 156.005508,26.409897 156.005508,37.993320 
M125.512581,21.283514 
	C125.695213,19.181393 125.877838,17.079271 126.110298,14.403633 
	C131.341187,14.403633 136.120972,14.403633 140.900772,14.403633 
	C140.907074,13.942577 140.913391,13.481522 140.919693,13.020466 
	C133.839569,11.172615 126.678627,10.254985 120.016266,11.013614 
	C120.726967,15.188817 121.299828,18.570988 121.878822,21.952106 
	C122.939926,28.148565 123.723190,34.414814 125.244522,40.496311 
	C125.683815,42.252357 128.580124,44.958897 129.783218,44.690357 
	C135.265671,43.466637 139.595093,40.065819 143.340012,36.111202 
	C142.951874,35.476677 142.563736,34.842152 142.175598,34.207626 
	C138.282959,36.320454 134.390335,38.433281 129.112976,41.297703 
	C128.539795,37.176304 126.696869,32.967453 128.003021,30.301397 
	C128.955582,28.357117 134.059158,28.446524 138.284790,27.385006 
	C137.253998,26.562536 136.264038,25.183695 135.039093,24.927229 
	C132.975708,24.495224 130.707291,25.056568 128.635574,24.644590 
	C127.498680,24.418507 126.587700,23.056416 125.512581,21.283514 
z"/>
<path fill="#F8001C" opacity="1.000000" stroke="none" 
	d="
M52.003159,37.993294 
	C52.003159,42.792847 52.003159,47.094101 52.003159,51.697296 
	C35.946423,51.697296 20.233894,51.697296 4.258307,51.697296 
	C4.258307,35.976402 4.258307,20.380968 4.258307,4.390551 
	C19.873075,4.390551 35.587368,4.390551 52.003159,4.390551 
	C52.003159,15.326259 52.003159,26.410627 52.003159,37.993294 
M34.384289,22.738543 
	C34.631157,22.308611 34.908367,21.893064 35.120110,21.446478 
	C36.875580,17.744001 37.590008,14.098063 33.846962,11.145443 
	C31.076227,8.959812 22.264311,8.785698 20.074707,10.999537 
	C19.195156,11.888824 18.701561,13.608194 18.768845,14.911741 
	C19.161167,22.512646 19.731709,30.105474 20.333956,37.693737 
	C20.516264,39.990807 20.990894,42.264679 21.331631,44.549175 
	C21.925911,44.535946 22.520191,44.522717 23.114473,44.509487 
	C23.355453,42.400341 23.898441,40.273365 23.775173,38.185726 
	C23.510437,33.702213 23.659647,29.874386 28.982609,28.053535 
	C30.953270,27.379419 32.330288,24.969893 34.384289,22.738543 
z"/>
<path fill="#FAFC33" opacity="1.000000" stroke="none" 
	d="
M94.959915,3.994774 
	C98.100060,3.994774 100.745689,3.994774 103.696083,3.994774 
	C103.696083,19.937548 103.696083,35.662262 103.696083,51.697037 
	C88.060799,51.697037 72.336029,51.697037 56.302082,51.697037 
	C56.302082,36.059006 56.302082,20.334213 56.302082,3.994774 
	C68.963943,3.994774 81.714668,3.994774 94.959915,3.994774 
M92.310349,37.783180 
	C86.372559,34.643005 80.434769,31.502829 73.865356,28.028622 
	C76.089828,25.988401 78.819984,24.229784 80.465759,21.751152 
	C81.916267,19.566593 83.259567,16.293419 82.671661,14.010484 
	C81.782539,10.557863 69.332466,9.058621 66.752617,11.689928 
	C66.245445,12.207213 65.962509,13.148575 65.939590,13.905355 
	C65.660530,23.124086 66.538132,32.181091 70.526093,40.643452 
	C71.338127,42.366577 72.916748,43.728451 74.141983,45.256859 
	C74.587387,45.018841 75.032791,44.780823 75.478203,44.542801 
	C74.806129,40.954578 74.134056,37.366352 73.230942,32.544529 
	C77.834435,34.575283 81.468742,36.485001 85.313904,37.757690 
	C87.555588,38.499653 90.134758,38.221958 92.310349,37.783180 
z"/>
<path fill="#FCFE34" opacity="1.000000" stroke="none" 
	d="
M263.997772,35.997395 
	C263.997772,25.197882 263.997772,14.897610 263.997772,4.298198 
	C279.954498,4.298198 295.677002,4.298198 311.701782,4.298198 
	C311.701782,19.954613 311.701782,35.677181 311.701782,51.701874 
	C296.045319,51.701874 280.322754,51.701874 263.997772,51.701874 
	C263.997772,46.682613 263.997772,41.589626 263.997772,35.997395 
M295.275543,38.691753 
	C296.320129,33.942410 298.411133,29.135279 298.152832,24.457882 
	C297.805267,18.163717 292.529541,15.635908 286.469727,17.627974 
	C281.529816,19.251884 278.416412,22.765226 276.488708,27.434307 
	C273.856903,33.808834 275.212524,40.994942 279.515564,43.821983 
	C283.761902,46.611748 289.729187,44.857548 295.275543,38.691753 
z"/>
<path fill="#10820F" opacity="1.000000" stroke="none" 
	d="
M216.194443,3.998557 
	C230.928299,3.998032 245.185043,3.998032 259.717957,3.998032 
	C259.717957,20.148329 259.717957,35.706238 259.717957,51.633720 
	C244.024231,51.633720 228.465332,51.633720 212.619003,51.633720 
	C212.453033,51.053185 212.050659,50.297596 212.048248,49.540733 
	C212.003662,35.565315 212.070511,21.589190 211.947556,7.614676 
	C211.922211,4.734673 212.962280,3.645334 216.194443,3.998557 
M237.327103,44.008202 
	C241.325745,43.900970 245.450790,44.102592 248.775726,39.369167 
	C246.352448,39.155567 244.914291,38.789742 243.537262,38.949833 
	C238.275711,39.561562 235.823959,36.805702 234.964233,32.065632 
	C234.550537,29.784754 234.253677,27.480745 233.965652,25.179483 
	C233.554916,21.897814 234.990952,20.324608 238.330124,19.870047 
	C240.218185,19.613026 241.978836,18.420149 243.796890,17.648802 
	C243.601700,17.119314 243.406525,16.589827 243.211334,16.060339 
	C236.905106,16.060339 230.594391,15.937664 224.296524,16.167370 
	C223.086365,16.211508 221.926697,17.639544 220.743729,18.429148 
	C220.968384,18.847664 221.193054,19.266178 221.417709,19.684694 
	C224.151505,19.914555 226.885315,20.144415 229.415237,20.357134 
	C230.504517,25.518394 231.361847,30.258307 232.533234,34.919281 
	C233.491150,38.730785 232.526291,40.388947 228.404770,39.670116 
	C227.126816,39.447231 225.777176,39.635445 224.460358,39.635445 
	C224.276367,40.251362 224.092361,40.867283 223.908356,41.483200 
	C225.402328,42.323898 226.820847,43.648354 228.407333,43.895813 
	C231.010788,44.301903 233.723267,44.008934 237.327103,44.008202 
z"/>
<path fill="#F9001C" opacity="1.000000" stroke="none" 
	d="
M160.009583,6.247177 
	C160.975250,5.180060 161.928085,4.083088 162.888916,4.076026 
	C177.695221,3.967198 192.502579,4.000099 207.655273,4.000099 
	C207.655273,19.971758 207.655273,35.687019 207.655273,51.703583 
	C191.929214,51.703583 176.214554,51.703583 160.000458,51.703583 
	C160.000458,36.608852 160.000458,21.666584 160.009583,6.247177 
M174.801620,19.476221 
	C176.648666,26.698668 178.421707,33.941185 180.373642,41.135170 
	C181.363449,44.783226 183.583633,44.906837 186.316360,42.751472 
	C191.871597,38.369904 195.042816,24.054852 191.793289,17.784849 
	C189.778580,13.897449 186.437943,12.478503 182.239014,13.057445 
	C178.735062,13.540563 175.123917,14.047645 174.801620,19.476221 
z"/>
<path fill="#0F0003" opacity="1.000000" stroke="none" 
	d="
M125.543716,21.745029 
	C126.587700,23.056416 127.498680,24.418507 128.635574,24.644590 
	C130.707291,25.056568 132.975708,24.495224 135.039093,24.927229 
	C136.264038,25.183695 137.253998,26.562536 138.284790,27.385006 
	C134.059158,28.446524 128.955582,28.357117 128.003021,30.301397 
	C126.696869,32.967453 128.539795,37.176304 129.112976,41.297703 
	C134.390335,38.433281 138.282959,36.320454 142.175598,34.207626 
	C142.563736,34.842152 142.951874,35.476677 143.340012,36.111202 
	C139.595093,40.065819 135.265671,43.466637 129.783218,44.690357 
	C128.580124,44.958897 125.683815,42.252357 125.244522,40.496311 
	C123.723190,34.414814 122.939926,28.148565 121.878822,21.952106 
	C121.299828,18.570988 120.726967,15.188817 120.016266,11.013614 
	C126.678627,10.254985 133.839569,11.172615 140.919693,13.020466 
	C140.913391,13.481522 140.907074,13.942577 140.900772,14.403633 
	C136.120972,14.403633 131.341187,14.403633 126.110298,14.403633 
	C125.877838,17.079271 125.695213,19.181393 125.543716,21.745029 
z"/>
<path fill="#0F0004" opacity="1.000000" stroke="none" 
	d="
M34.181168,23.045181 
	C32.330288,24.969893 30.953270,27.379419 28.982609,28.053535 
	C23.659647,29.874386 23.510437,33.702213 23.775173,38.185726 
	C23.898441,40.273365 23.355453,42.400341 23.114473,44.509487 
	C22.520191,44.522717 21.925911,44.535946 21.331631,44.549175 
	C20.990894,42.264679 20.516264,39.990807 20.333956,37.693737 
	C19.731709,30.105474 19.161167,22.512646 18.768845,14.911741 
	C18.701561,13.608194 19.195156,11.888824 20.074707,10.999537 
	C22.264311,8.785698 31.076227,8.959812 33.846962,11.145443 
	C37.590008,14.098063 36.875580,17.744001 35.120110,21.446478 
	C34.908367,21.893064 34.631157,22.308611 34.181168,23.045181 
M26.351946,25.117090 
	C28.437120,23.093458 30.863638,21.300047 32.453705,18.942488 
	C33.175369,17.872490 32.700203,14.512627 31.967854,14.224392 
	C29.825409,13.381178 27.185814,13.100806 24.940372,13.564734 
	C24.043772,13.749980 23.121580,16.482555 23.179825,18.018824 
	C23.277641,20.598854 24.150448,23.149502 24.697191,25.712513 
	C25.007631,25.606476 25.318071,25.500437 26.351946,25.117090 
z"/>
<path fill="#101005" opacity="1.000000" stroke="none" 
	d="
M92.436218,38.093105 
	C90.134758,38.221958 87.555588,38.499653 85.313904,37.757690 
	C81.468742,36.485001 77.834435,34.575283 73.230942,32.544529 
	C74.134056,37.366352 74.806129,40.954578 75.478203,44.542801 
	C75.032791,44.780823 74.587387,45.018841 74.141983,45.256859 
	C72.916748,43.728451 71.338127,42.366577 70.526093,40.643452 
	C66.538132,32.181091 65.660530,23.124086 65.939590,13.905355 
	C65.962509,13.148575 66.245445,12.207213 66.752617,11.689928 
	C69.332466,9.058621 81.782539,10.557863 82.671661,14.010484 
	C83.259567,16.293419 81.916267,19.566593 80.465759,21.751152 
	C78.819984,24.229784 76.089828,25.988401 73.865356,28.028622 
	C80.434769,31.502829 86.372559,34.643005 92.436218,38.093105 
M78.432419,14.860846 
	C75.584435,14.925400 70.719406,14.143317 70.269760,15.214552 
	C68.963661,18.326244 69.427635,22.180908 69.197220,25.744108 
	C69.735664,25.932915 70.274101,26.121721 70.812546,26.310528 
	C72.830917,24.972118 75.093208,23.885054 76.801567,22.227188 
	C78.644691,20.438545 81.688362,18.669817 78.432419,14.860846 
z"/>
<path fill="#181807" opacity="1.000000" stroke="none" 
	d="
M295.073425,38.999798 
	C289.729187,44.857548 283.761902,46.611748 279.515564,43.821983 
	C275.212524,40.994942 273.856903,33.808834 276.488708,27.434307 
	C278.416412,22.765226 281.529816,19.251884 286.469727,17.627974 
	C292.529541,15.635908 297.805267,18.163717 298.152832,24.457882 
	C298.411133,29.135279 296.320129,33.942410 295.073425,38.999798 
M279.533295,38.616211 
	C281.998230,42.615730 285.376251,41.931671 288.603424,40.040905 
	C293.929321,36.920544 295.877930,31.850771 294.974396,26.005247 
	C294.669220,24.030716 292.871796,21.442825 291.125458,20.768089 
	C289.312683,20.067669 285.469330,19.151485 285.640503,23.801014 
	C285.654694,24.186836 284.786499,24.773733 284.222412,24.986450 
	C277.782043,27.415113 278.209503,32.515049 279.533295,38.616211 
z"/>
<path fill="#010701" opacity="1.000000" stroke="none" 
	d="
M236.858429,44.009476 
	C233.723267,44.008934 231.010788,44.301903 228.407333,43.895813 
	C226.820847,43.648354 225.402328,42.323898 223.908356,41.483200 
	C224.092361,40.867283 224.276367,40.251362 224.460358,39.635445 
	C225.777176,39.635445 227.126816,39.447231 228.404770,39.670116 
	C232.526291,40.388947 233.491150,38.730785 232.533234,34.919281 
	C231.361847,30.258307 230.504517,25.518394 229.415237,20.357134 
	C226.885315,20.144415 224.151505,19.914555 221.417709,19.684694 
	C221.193054,19.266178 220.968384,18.847664 220.743729,18.429148 
	C221.926697,17.639544 223.086365,16.211508 224.296524,16.167370 
	C230.594391,15.937664 236.905106,16.060339 243.211334,16.060339 
	C243.406525,16.589827 243.601700,17.119314 243.796890,17.648802 
	C241.978836,18.420149 240.218185,19.613026 238.330124,19.870047 
	C234.990952,20.324608 233.554916,21.897814 233.965652,25.179483 
	C234.253677,27.480745 234.550537,29.784754 234.964233,32.065632 
	C235.823959,36.805702 238.275711,39.561562 243.537262,38.949833 
	C244.914291,38.789742 246.352448,39.155567 248.775726,39.369167 
	C245.450790,44.102592 241.325745,43.900970 236.858429,44.009476 
z"/>
<path fill="#120005" opacity="1.000000" stroke="none" 
	d="
M174.772308,19.103455 
	C175.123917,14.047645 178.735062,13.540563 182.239014,13.057445 
	C186.437943,12.478503 189.778580,13.897449 191.793289,17.784849 
	C195.042816,24.054852 191.871597,38.369904 186.316360,42.751472 
	C183.583633,44.906837 181.363449,44.783226 180.373642,41.135170 
	C178.421707,33.941185 176.648666,26.698668 174.772308,19.103455 
M186.472229,16.982838 
	C183.191025,16.230091 178.817566,15.541169 178.278854,19.500088 
	C177.358826,26.261360 179.192062,32.837845 184.274521,38.123745 
	C190.609543,31.174692 191.628143,23.195887 186.472229,16.982838 
z"/>
<path fill="#EE001A" opacity="1.000000" stroke="none" 
	d="
M25.990229,25.255745 
	C25.318071,25.500437 25.007631,25.606476 24.697191,25.712513 
	C24.150448,23.149502 23.277641,20.598854 23.179825,18.018824 
	C23.121580,16.482555 24.043772,13.749980 24.940372,13.564734 
	C27.185814,13.100806 29.825409,13.381178 31.967854,14.224392 
	C32.700203,14.512627 33.175369,17.872490 32.453705,18.942488 
	C30.863638,21.300047 28.437120,23.093458 25.990229,25.255745 
z"/>
<path fill="#EDF230" opacity="1.000000" stroke="none" 
	d="
M78.784149,15.059214 
	C81.688362,18.669817 78.644691,20.438545 76.801567,22.227188 
	C75.093208,23.885054 72.830917,24.972118 70.812546,26.310528 
	C70.274101,26.121721 69.735664,25.932915 69.197220,25.744108 
	C69.427635,22.180908 68.963661,18.326244 70.269760,15.214552 
	C70.719406,14.143317 75.584435,14.925400 78.784149,15.059214 
z"/>
<path fill="#F5F732" opacity="1.000000" stroke="none" 
	d="
M279.345764,38.224934 
	C278.209503,32.515049 277.782043,27.415113 284.222412,24.986450 
	C284.786499,24.773733 285.654694,24.186836 285.640503,23.801014 
	C285.469330,19.151485 289.312683,20.067669 291.125458,20.768089 
	C292.871796,21.442825 294.669220,24.030716 294.974396,26.005247 
	C295.877930,31.850771 293.929321,36.920544 288.603424,40.040905 
	C285.376251,41.931671 281.998230,42.615730 279.345764,38.224934 
z"/>
<path fill="#F1001A" opacity="1.000000" stroke="none" 
	d="
M186.812042,17.165424 
	C191.628143,23.195887 190.609543,31.174692 184.274521,38.123745 
	C179.192062,32.837845 177.358826,26.261360 178.278854,19.500088 
	C178.817566,15.541169 183.191025,16.230091 186.812042,17.165424 
z"/>
</svg>